<mxfile host="app.diagrams.net" agent="Mozilla/5.0 (Windows NT 10.0; Win64; x64) AppleWebKit/537.36 (KHTML, like Gecko) Chrome/135.0.0.0 Safari/537.36" version="26.2.13">
  <diagram name="Página-1" id="3_1Di3pC6kUqCMEKMCiT">
    <mxGraphModel dx="1044" dy="604" grid="1" gridSize="10" guides="1" tooltips="1" connect="1" arrows="1" fold="1" page="1" pageScale="1" pageWidth="827" pageHeight="1169" math="0" shadow="0">
      <root>
        <mxCell id="0" />
        <mxCell id="1" parent="0" />
        <mxCell id="FWiAoHpzoxIrbBl5Vgsz-1" value="" style="whiteSpace=wrap;html=1;aspect=fixed;" parent="1" vertex="1">
          <mxGeometry x="245" y="90" width="430" height="430" as="geometry" />
        </mxCell>
        <mxCell id="FWiAoHpzoxIrbBl5Vgsz-2" value="Sistema de E-Commerce" style="text;html=1;align=center;verticalAlign=middle;resizable=0;points=[];autosize=1;strokeColor=none;fillColor=none;" parent="1" vertex="1">
          <mxGeometry x="380" y="60" width="160" height="30" as="geometry" />
        </mxCell>
        <mxCell id="FWiAoHpzoxIrbBl5Vgsz-8" style="edgeStyle=orthogonalEdgeStyle;rounded=0;orthogonalLoop=1;jettySize=auto;html=1;entryX=0;entryY=0.5;entryDx=0;entryDy=0;endArrow=block;endFill=1;" parent="1" source="FWiAoHpzoxIrbBl5Vgsz-3" target="FWiAoHpzoxIrbBl5Vgsz-14" edge="1">
          <mxGeometry relative="1" as="geometry">
            <mxPoint x="290" y="260" as="targetPoint" />
          </mxGeometry>
        </mxCell>
        <mxCell id="FWiAoHpzoxIrbBl5Vgsz-3" value="Cliente" style="shape=umlActor;verticalLabelPosition=bottom;verticalAlign=top;html=1;outlineConnect=0;" parent="1" vertex="1">
          <mxGeometry x="190" y="130" width="30" height="60" as="geometry" />
        </mxCell>
        <mxCell id="FWiAoHpzoxIrbBl5Vgsz-4" value="Sistema de pagamento" style="shape=umlActor;verticalLabelPosition=bottom;verticalAlign=top;html=1;outlineConnect=0;" parent="1" vertex="1">
          <mxGeometry x="730" y="130" width="30" height="60" as="geometry" />
        </mxCell>
        <mxCell id="FWiAoHpzoxIrbBl5Vgsz-20" style="edgeStyle=orthogonalEdgeStyle;rounded=0;orthogonalLoop=1;jettySize=auto;html=1;endArrow=block;endFill=1;" parent="1" source="FWiAoHpzoxIrbBl5Vgsz-14" target="FWiAoHpzoxIrbBl5Vgsz-4" edge="1">
          <mxGeometry relative="1" as="geometry" />
        </mxCell>
        <mxCell id="FWiAoHpzoxIrbBl5Vgsz-14" value="Finalizar a compra" style="ellipse;whiteSpace=wrap;html=1;" parent="1" vertex="1">
          <mxGeometry x="300" y="140" width="120" height="80" as="geometry" />
        </mxCell>
        <mxCell id="FWiAoHpzoxIrbBl5Vgsz-18" style="edgeStyle=orthogonalEdgeStyle;rounded=0;orthogonalLoop=1;jettySize=auto;html=1;exitX=0.5;exitY=0;exitDx=0;exitDy=0;dashed=1;endArrow=block;endFill=1;entryX=0.5;entryY=1;entryDx=0;entryDy=0;" parent="1" source="FWiAoHpzoxIrbBl5Vgsz-16" target="FWiAoHpzoxIrbBl5Vgsz-14" edge="1">
          <mxGeometry relative="1" as="geometry" />
        </mxCell>
        <mxCell id="SYkFePoP31hSc_Hsk7NK-1" value="INCLUDE" style="edgeLabel;html=1;align=center;verticalAlign=middle;resizable=0;points=[];" vertex="1" connectable="0" parent="FWiAoHpzoxIrbBl5Vgsz-18">
          <mxGeometry x="-0.0011" relative="1" as="geometry">
            <mxPoint as="offset" />
          </mxGeometry>
        </mxCell>
        <mxCell id="FWiAoHpzoxIrbBl5Vgsz-16" value="Selecionar método de pagamento" style="ellipse;whiteSpace=wrap;html=1;" parent="1" vertex="1">
          <mxGeometry x="540" y="340" width="120" height="80" as="geometry" />
        </mxCell>
        <mxCell id="SYkFePoP31hSc_Hsk7NK-2" value="Calcular o frete" style="ellipse;whiteSpace=wrap;html=1;" vertex="1" parent="1">
          <mxGeometry x="400" y="340" width="120" height="80" as="geometry" />
        </mxCell>
        <mxCell id="SYkFePoP31hSc_Hsk7NK-3" style="edgeStyle=orthogonalEdgeStyle;rounded=0;orthogonalLoop=1;jettySize=auto;html=1;entryX=0.31;entryY=0.913;entryDx=0;entryDy=0;entryPerimeter=0;endArrow=block;endFill=1;dashed=1;" edge="1" parent="1" source="SYkFePoP31hSc_Hsk7NK-2" target="FWiAoHpzoxIrbBl5Vgsz-14">
          <mxGeometry relative="1" as="geometry">
            <Array as="points">
              <mxPoint x="460" y="300" />
              <mxPoint x="337" y="300" />
            </Array>
          </mxGeometry>
        </mxCell>
        <mxCell id="SYkFePoP31hSc_Hsk7NK-4" value="INCLUDE" style="edgeLabel;html=1;align=center;verticalAlign=middle;resizable=0;points=[];" vertex="1" connectable="0" parent="SYkFePoP31hSc_Hsk7NK-3">
          <mxGeometry x="-0.1528" relative="1" as="geometry">
            <mxPoint as="offset" />
          </mxGeometry>
        </mxCell>
        <mxCell id="SYkFePoP31hSc_Hsk7NK-6" style="edgeStyle=orthogonalEdgeStyle;rounded=0;orthogonalLoop=1;jettySize=auto;html=1;entryX=0;entryY=1;entryDx=0;entryDy=0;endArrow=block;endFill=1;dashed=1;" edge="1" parent="1" source="SYkFePoP31hSc_Hsk7NK-5" target="FWiAoHpzoxIrbBl5Vgsz-14">
          <mxGeometry relative="1" as="geometry" />
        </mxCell>
        <mxCell id="SYkFePoP31hSc_Hsk7NK-7" value="INCLUDE" style="edgeLabel;html=1;align=center;verticalAlign=middle;resizable=0;points=[];" vertex="1" connectable="0" parent="SYkFePoP31hSc_Hsk7NK-6">
          <mxGeometry x="-0.6421" relative="1" as="geometry">
            <mxPoint as="offset" />
          </mxGeometry>
        </mxCell>
        <mxCell id="SYkFePoP31hSc_Hsk7NK-5" value="Colocar o produto no carrinho" style="ellipse;whiteSpace=wrap;html=1;" vertex="1" parent="1">
          <mxGeometry x="260" y="340" width="120" height="80" as="geometry" />
        </mxCell>
        <mxCell id="SYkFePoP31hSc_Hsk7NK-9" style="edgeStyle=orthogonalEdgeStyle;rounded=0;orthogonalLoop=1;jettySize=auto;html=1;entryX=0.5;entryY=1;entryDx=0;entryDy=0;exitX=0;exitY=0.5;exitDx=0;exitDy=0;dashed=1;endArrow=block;endFill=1;" edge="1" parent="1" source="SYkFePoP31hSc_Hsk7NK-8" target="SYkFePoP31hSc_Hsk7NK-2">
          <mxGeometry relative="1" as="geometry" />
        </mxCell>
        <mxCell id="SYkFePoP31hSc_Hsk7NK-10" value="INCLUDE" style="edgeLabel;html=1;align=center;verticalAlign=middle;resizable=0;points=[];" vertex="1" connectable="0" parent="SYkFePoP31hSc_Hsk7NK-9">
          <mxGeometry x="-0.3822" y="-1" relative="1" as="geometry">
            <mxPoint as="offset" />
          </mxGeometry>
        </mxCell>
        <mxCell id="SYkFePoP31hSc_Hsk7NK-8" value="Verificar CEP" style="ellipse;whiteSpace=wrap;html=1;" vertex="1" parent="1">
          <mxGeometry x="500" y="430" width="120" height="80" as="geometry" />
        </mxCell>
      </root>
    </mxGraphModel>
  </diagram>
</mxfile>
